<svg width="235" height="45" viewBox="0 0 235 45" fill="none" xmlns="http://www.w3.org/2000/svg"><path d="M8.89061 23.6649C13.0338 23.6649 15.8535 25.9091 15.8535 29.8221C15.8535 33.7064 13.0338 35.9506 8.89061 35.9506H5.81199V43.8054H2.35932V23.6649H8.89061ZM8.94816 32.872C10.991 32.872 12.4008 31.7786 12.4008 29.8221C12.4008 27.8656 10.991 26.7723 8.94816 26.7723H5.81199V32.872H8.94816Z" fill="#2C3357"/><path d="M17.5607 40.065C17.5607 37.5043 19.2295 35.9794 22.5671 35.4903L26.3938 35.0011V34.3969C26.3938 32.9871 25.4155 32.0951 23.8906 32.0951C22.452 32.0951 21.5313 32.8144 21.0997 34.2243L18.0498 33.4474C18.7404 30.9155 21.0134 29.3618 23.8906 29.3618C27.5734 29.3618 29.645 31.2895 29.645 34.6271V43.8054H26.5376L26.5089 42.0791C25.5594 43.4314 23.9481 44.1507 22.1067 44.1507C19.4309 44.1507 17.5607 42.4531 17.5607 40.065ZM20.8695 39.8349C20.8695 40.8419 21.7039 41.4749 22.8836 41.4749C24.9552 41.4749 26.4225 40.1514 26.4225 38.2812V37.4755L23.2288 37.9071C21.6464 38.1085 20.8695 38.8278 20.8695 39.8349Z" fill="#2C3357"/><path d="M36.9631 43.8054H33.6255V23.6649H36.9631V43.8054Z" fill="#2C3357"/><path d="M53.8744 40.4966C52.6947 42.7121 50.508 44.1507 47.5157 44.1507C43.2287 44.1507 40.1788 41.1008 40.1788 36.7562C40.1788 32.5267 43.2862 29.3618 47.3431 29.3618C51.4575 29.3618 54.3635 32.5267 54.3635 36.7562C54.3635 37.0152 54.3635 37.3604 54.3347 37.7633H43.4876C43.6315 39.8061 45.4441 41.331 47.5445 41.331C49.3859 41.331 50.3354 40.4391 51.141 39.2019L53.8744 40.4966ZM51.0547 35.3464C50.8245 33.4762 49.3284 32.0951 47.2855 32.0951C45.3003 32.0951 43.7466 33.7351 43.5164 35.3464H51.0547Z" fill="#2C3357"/><path d="M58.2581 32.5267H55.87V29.707H58.2581V25.5351H61.5957V29.707H64.329V32.5267H61.5957V43.8054H58.2581V32.5267Z" fill="#2C3357"/><path d="M65.889 40.065C65.889 37.5043 67.5578 35.9794 70.8954 35.4903L74.7221 35.0011V34.3969C74.7221 32.9871 73.7438 32.0951 72.2189 32.0951C70.7803 32.0951 69.8596 32.8144 69.428 34.2243L66.3781 33.4474C67.0687 30.9155 69.3417 29.3618 72.2189 29.3618C75.9017 29.3618 77.9733 31.2895 77.9733 34.6271V43.8054H74.8659L74.8372 42.0791C73.8877 43.4314 72.2764 44.1507 70.435 44.1507C67.7592 44.1507 65.889 42.4531 65.889 40.065ZM69.1978 39.8349C69.1978 40.8419 70.0322 41.4749 71.2119 41.4749C73.2835 41.4749 74.7509 40.1514 74.7509 38.2812V37.4755L71.5571 37.9071C69.9747 38.1085 69.1978 38.8278 69.1978 39.8349Z" fill="#2C3357"/><path d="M83.3362 39.1443C83.8253 40.4391 84.8899 41.3022 86.1559 41.3022C87.1917 41.3022 88.0549 40.8419 88.0549 39.8349C88.0549 39.058 87.5657 38.6552 86.4436 38.3099L84.746 37.7633C82.358 36.9864 81.1495 35.6341 81.1495 33.6776C81.1495 31.0306 83.365 29.3618 86.012 29.3618C88.3138 29.3618 90.2415 30.599 91.1335 32.5555L88.4577 33.9941C87.911 32.872 87.0766 32.1239 86.012 32.1239C85.0625 32.1239 84.3145 32.613 84.3145 33.4187C84.3145 34.0804 84.8324 34.5983 85.8969 34.9436L87.5657 35.4903C90.2128 36.3822 91.2773 37.7345 91.2773 39.6047C91.2773 42.4819 88.8605 44.1507 86.0983 44.1507C83.4513 44.1507 81.4372 42.7408 80.6316 40.5542L83.3362 39.1443Z" fill="#2C3357"/><path d="M111.849 41.7914C110.813 43.2587 109.029 44.1507 107.072 44.1507C103.188 44.1507 100.196 40.9857 100.196 36.7562C100.196 32.613 103.188 29.3618 107.072 29.3618C109.029 29.3618 110.813 30.1674 111.849 31.6348V23.6649H115.157V43.8054H111.849V41.7914ZM103.533 36.7562C103.533 39.1731 105.375 41.1296 107.763 41.1296C110.151 41.1296 111.992 39.1731 111.992 36.7562C111.992 34.3394 110.151 32.3829 107.763 32.3829C105.375 32.3829 103.533 34.3394 103.533 36.7562Z" fill="#2C3357"/><path d="M132.071 40.4966C130.891 42.7121 128.704 44.1507 125.712 44.1507C121.425 44.1507 118.375 41.1008 118.375 36.7562C118.375 32.5267 121.483 29.3618 125.539 29.3618C129.654 29.3618 132.56 32.5267 132.56 36.7562C132.56 37.0152 132.56 37.3604 132.531 37.7633H121.684C121.828 39.8061 123.64 41.331 125.741 41.331C127.582 41.331 128.532 40.4391 129.337 39.2019L132.071 40.4966ZM129.251 35.3464C129.021 33.4762 127.525 32.0951 125.482 32.0951C123.497 32.0951 121.943 33.7351 121.713 35.3464H129.251Z" fill="#2C3357"/><path d="M141.612 36.7562C141.612 32.5267 144.691 29.3618 149.064 29.3618C150.474 29.3618 151.711 29.707 152.833 30.3688V33.6776C151.711 32.8432 150.56 32.4116 149.352 32.4116C146.849 32.4116 144.978 34.3106 144.978 36.7562C144.978 39.2019 146.82 41.1008 149.352 41.1008C150.704 41.1008 151.884 40.5254 152.891 39.8349V43.1437C151.711 43.8054 150.416 44.1507 149.035 44.1507C144.662 44.1507 141.612 41.0433 141.612 36.7562Z" fill="#2C3357"/><path d="M162.693 29.3618C167.009 29.3618 170.202 32.613 170.202 36.7562C170.202 40.8994 167.009 44.1507 162.693 44.1507C158.377 44.1507 155.183 40.8994 155.183 36.7562C155.183 32.613 158.377 29.3618 162.693 29.3618ZM162.693 32.4116C160.334 32.4116 158.492 34.3394 158.492 36.7562C158.492 39.1731 160.334 41.1008 162.693 41.1008C165.052 41.1008 166.894 39.1731 166.894 36.7562C166.894 34.3394 165.052 32.4116 162.693 32.4116Z" fill="#2C3357"/><path d="M176.75 43.8054H173.412V23.6649H176.75V43.8054Z" fill="#2C3357"/><path d="M187.475 29.3618C191.791 29.3618 194.985 32.613 194.985 36.7562C194.985 40.8994 191.791 44.1507 187.475 44.1507C183.159 44.1507 179.966 40.8994 179.966 36.7562C179.966 32.613 183.159 29.3618 187.475 29.3618ZM187.475 32.4116C185.116 32.4116 183.274 34.3394 183.274 36.7562C183.274 39.1731 185.116 41.1008 187.475 41.1008C189.834 41.1008 191.676 39.1731 191.676 36.7562C191.676 34.3394 189.834 32.4116 187.475 32.4116Z" fill="#2C3357"/><path d="M206.308 32.9008C206.165 32.8144 205.877 32.7857 205.445 32.7857C203 32.7857 201.503 34.6846 201.503 37.5906V43.8054H198.195V29.707H201.475V32.1239C202.165 30.4839 203.834 29.4193 205.675 29.4193C206.049 29.4193 206.251 29.4481 206.308 29.5056V32.9008Z" fill="#2C3357"/><path d="M221.422 40.4966C220.242 42.7121 218.056 44.1507 215.063 44.1507C210.776 44.1507 207.726 41.1008 207.726 36.7562C207.726 32.5267 210.834 29.3618 214.891 29.3618C219.005 29.3618 221.911 32.5267 221.911 36.7562C221.911 37.0152 221.911 37.3604 221.882 37.7633H211.035C211.179 39.8061 212.992 41.331 215.092 41.331C216.933 41.331 217.883 40.4391 218.689 39.2019L221.422 40.4966ZM218.602 35.3464C218.372 33.4762 216.876 32.0951 214.833 32.0951C212.848 32.0951 211.294 33.7351 211.064 35.3464H218.602Z" fill="#2C3357"/><path d="M226.579 39.1443C227.068 40.4391 228.133 41.3022 229.399 41.3022C230.435 41.3022 231.298 40.8419 231.298 39.8349C231.298 39.058 230.809 38.6552 229.686 38.3099L227.989 37.7633C225.601 36.9864 224.392 35.6341 224.392 33.6776C224.392 31.0306 226.608 29.3618 229.255 29.3618C231.557 29.3618 233.484 30.599 234.376 32.5555L231.701 33.9941C231.154 32.872 230.319 32.1239 229.255 32.1239C228.305 32.1239 227.557 32.613 227.557 33.4187C227.557 34.0804 228.075 34.5983 229.14 34.9436L230.809 35.4903C233.456 36.3822 234.52 37.7345 234.52 39.6047C234.52 42.4819 232.103 44.1507 229.341 44.1507C226.694 44.1507 224.68 42.7408 223.874 40.5542L226.579 39.1443Z" fill="#2C3357"/><path d="M14.4582 0C14.442 0 14.442 0 14.442 0C12.3139 0 10.2994 0.834028 8.78864 2.32219C8.02512 1.99513 7.18037 1.81524 6.31938 1.81524C2.84291 1.81524 0 4.66074 0 8.17674C0 11.6927 2.82666 14.5382 6.31938 14.5382C7.16413 14.5382 8.00888 14.3584 8.7724 14.0313C10.2345 15.4704 12.2326 16.3535 14.4257 16.3535C18.9094 16.3535 22.5483 12.6903 22.5483 8.17674C22.5646 3.67953 18.9256 0 14.4582 0ZM14.442 14.5382C10.9655 14.5382 8.12259 11.6927 8.12259 8.17674H6.31938C6.31938 9.77938 6.77424 11.2839 7.57026 12.5431C7.16413 12.6576 6.74175 12.723 6.31938 12.723C3.83386 12.723 1.80322 10.6788 1.80322 8.17674C1.80322 5.67466 3.83386 3.63047 6.31938 3.63047C7.31033 3.63047 8.23631 3.94119 9.03232 4.54627C10.1857 5.413 10.8355 6.73764 10.8355 8.17674H12.655C12.655 6.27974 11.8427 4.51356 10.3969 3.3034C11.5341 2.3549 12.9637 1.81524 14.4582 1.81524C17.9347 1.81524 20.7776 4.6771 20.7776 8.17674C20.7613 11.6764 17.9347 14.5382 14.442 14.5382ZM27.1457 12.7394V6.91752H25.9273V5.46206H27.1457V3.3034H28.8514V5.46206H30.0698V6.91752H28.8514V12.7394H27.1457ZM31.8406 4.39909C31.272 4.39909 30.8009 3.92484 30.8009 3.35246C30.8009 2.76374 31.272 2.28949 31.8406 2.28949C32.4416 2.28949 32.8965 2.78009 32.8965 3.35246C32.8965 3.92484 32.4579 4.39909 31.8406 4.39909ZM31.0121 12.7394V5.46206H32.7178V12.7394H31.0121ZM40.7267 11.0222C40.1256 12.167 39.0047 12.9029 37.4614 12.9029C35.2683 12.9029 33.7088 11.333 33.7088 9.09254C33.7088 6.91752 35.3008 5.28218 37.3802 5.28218C39.492 5.28218 40.9704 6.91752 40.9704 9.09254C40.9704 9.22337 40.9704 9.40325 40.9541 9.61585H35.3983C35.4795 10.6625 36.4055 11.4638 37.4776 11.4638C38.4199 11.4638 38.9072 11.0059 39.3133 10.3681L40.7267 11.0222ZM39.2809 8.37298C39.1671 7.40813 38.4036 6.68858 37.3477 6.68858C36.3242 6.68858 35.5282 7.53896 35.4145 8.37298H39.2809ZM43.6021 12.7394H41.8963V5.46206H43.6021V6.42692C44.0569 5.72372 44.8042 5.28218 45.8114 5.28218C47.5821 5.28218 48.6056 6.45963 48.6056 8.35663V12.7394H46.8998V8.6837C46.8998 7.55531 46.3475 6.86846 45.2916 6.86846C44.2681 6.86846 43.6021 7.65343 43.6021 8.8963V12.7394ZM55.4773 12.7394V11.6927C54.9412 12.445 54.0315 12.9029 53.0243 12.9029C51.0261 12.9029 49.4991 11.2676 49.4991 9.09254C49.4991 6.95023 51.0261 5.28218 53.0243 5.28218C54.0315 5.28218 54.9412 5.69101 55.4773 6.45963V2.73103H57.1668V12.7394H55.4773ZM53.3817 11.3493C54.6001 11.3493 55.5423 10.3354 55.5423 9.09254C55.5423 7.84967 54.6001 6.83576 53.3817 6.83576C52.1633 6.83576 51.2211 7.84967 51.2211 9.09254C51.2211 10.3354 52.1633 11.3493 53.3817 11.3493ZM60.7407 8.4384L62.7064 8.1931V7.88238C62.7064 7.16283 62.2028 6.68858 61.423 6.68858C60.692 6.68858 60.2209 7.06471 59.9935 7.78426L58.4339 7.37542C58.7913 6.06714 59.9447 5.26582 61.423 5.26582C63.3075 5.26582 64.3634 6.26338 64.3634 7.9805V12.7067H62.7714L62.7551 11.8236C62.2678 12.5268 61.4393 12.8865 60.4971 12.8865C59.1325 12.8865 58.174 12.0035 58.174 10.7769C58.174 9.48502 59.035 8.70005 60.7407 8.4384ZM60.9032 11.5292C61.9591 11.5292 62.7227 10.8424 62.7227 9.87751V9.46867L61.0819 9.69762C60.2696 9.79574 59.8798 10.1719 59.8798 10.6952C59.8798 11.2185 60.3021 11.5292 60.9032 11.5292ZM67.45 12.7394H65.7443V5.46206H67.45V6.42692C67.9049 5.72372 68.6521 5.28218 69.6593 5.28218C71.4301 5.28218 72.4535 6.45963 72.4535 8.35663V12.7394H70.7478V8.6837C70.7478 7.55531 70.1954 6.86846 69.1395 6.86846C68.1161 6.86846 67.45 7.65343 67.45 8.8963V12.7394ZM73.6882 9.59949V5.46206H75.3939V9.50137C75.3939 10.6461 75.9462 11.333 76.9047 11.333C77.8469 11.333 78.4155 10.6461 78.4155 9.50137V5.46206H80.1213V9.59949C80.1213 11.6927 78.9191 12.9029 76.9047 12.9029C74.9065 12.9193 73.6882 11.6927 73.6882 9.59949ZM81.4858 12.7394V2.73103H83.1753V6.50869C83.7114 5.75643 84.6212 5.29853 85.6284 5.29853C87.6265 5.29853 89.1536 6.93388 89.1536 9.10889C89.1536 11.2512 87.6265 12.9193 85.6284 12.9193C84.6212 12.9193 83.7114 12.5104 83.1753 11.7418V12.7394H81.4858ZM85.2872 6.83576C84.0688 6.83576 83.1266 7.84967 83.1266 9.09254C83.1266 10.3354 84.0688 11.3493 85.2872 11.3493C86.5056 11.3493 87.4478 10.3354 87.4478 9.09254C87.4478 7.84967 86.5056 6.83576 85.2872 6.83576ZM96.7563 11.0222C96.1553 12.167 95.0343 12.9029 93.491 12.9029C91.2979 12.9029 89.7384 11.333 89.7384 9.09254C89.7384 6.91752 91.3304 5.28218 93.4098 5.28218C95.5217 5.28218 97 6.91752 97 9.09254C97 9.22337 97 9.40325 96.9838 9.61585H91.4279C91.5091 10.6625 92.4351 11.4638 93.5073 11.4638C94.4495 11.4638 94.9369 11.0059 95.343 10.3681L96.7563 11.0222ZM95.3105 8.37298C95.1968 7.40813 94.4333 6.68858 93.3773 6.68858C92.3539 6.68858 91.5579 7.53896 91.4442 8.37298H95.3105Z" fill="#2C3357"/></svg>